<svg xmlns="http://www.w3.org/2000/svg" viewBox="0 0 494.39 411.4"><defs><style>.a{fill:#62bac7;}.b{fill:#61b8c5;}.c{fill:#dddede;}.d{fill:#57a5af;}.e{fill:#5aabb7;}.f{fill:#fff;}.g{fill:#332d2b;}</style></defs><title>未标题-1</title><path class="a" d="M250,320.37c-.74.69-1.5,1.36-2.22,2.07Q181.9,388.29,116.12,454.18c-2,2-3.13,1.83-5.21.39C68.44,425.1,37.68,386.36,19,338.15a235.08,235.08,0,0,1-14.12-57A244.41,244.41,0,0,1,2.9,245c1-35.28,8.66-69,23.9-100.91A246.18,246.18,0,0,1,72.6,78.27a254.55,254.55,0,0,1,38.66-32.6c1.86-1.28,2.9-1.31,4.58.38q34,34.19,68.19,68.2c1.75,1.74,1.74,2.35-.55,3.51a146.84,146.84,0,0,0-63.77,61.85c-.11,3-2.09,5.2-3.19,7.77a141.07,141.07,0,0,0-12.36,41,149.3,149.3,0,0,0,4.57,64.38A168.08,168.08,0,0,0,115,309.6c1.38,3.24,1.55,3.3,4,.85q16.17-16.15,32.32-32.32c9.39-9.42,18.86-18.75,28.17-28.25a1.73,1.73,0,0,1,1.1-.58,1.62,1.62,0,0,1,.62.51,12.94,12.94,0,0,0,2.83,3.38q31.92,31.94,63.84,63.89C248.76,318,250.22,318.66,250,320.37Z" transform="translate(-2.83 -44.62)"/><path class="b" d="M180.71,250c0-.14,0-.28,0-.41.11-1.24,1.11-1.88,1.87-2.64q32.28-32.31,64.57-64.6a11.91,11.91,0,0,1,2.83-2.17c.81-.75,1.65-1.48,2.43-2.26Q318.33,112,384.19,46.06c1.8-1.81,2.86-1.87,4.93-.43q71,49.29,97.19,131.66a226.59,226.59,0,0,1,9.9,50.29c.15,1.93.64,3.83.37,5.78a1.58,1.58,0,0,1-1.9-1.55c-.08-1.82-1.32-1.92-2.61-2.21a158.47,158.47,0,0,0-43.4-3.72c-36.79,2-69.31,14.88-97.29,38.95-2.3,2-4.63,3.94-6.8,6.08-.7.7-1.38,1.54-2.56,1.43a8.44,8.44,0,0,1-3.25-2.51c-5.3-5.28-10.66-10.49-15.83-15.89a9.6,9.6,0,0,0-7.56-3.15q-64.8.11-129.6,0C184.06,250.82,182.24,251.22,180.71,250Z" transform="translate(-2.83 -44.62)"/><path class="c" d="M180.71,250c1.38,0,2.77.08,4.15.08q66.18,0,132.37,0a6.16,6.16,0,0,1,4.86,2c6.74,6.83,13.59,13.55,20.41,20.3,1.15,0,1.75.94,2.45,1.64q18.78,18.74,37.51,37.5c1,1,2.37,1.94,1.65,3.75a143.51,143.51,0,0,1-26.8,38.36,152.22,152.22,0,0,1-39.72,29.65c-1,.53-2,1.42-3.33.95-.75-.67-1.54-1.31-2.26-2q-29.78-29.78-59.56-59.54c-.78-.78-1.64-1.47-2.47-2.21s-1.39-1.71-2.16-2.48q-32.52-32.53-65-65.07C182,252,180.8,251.37,180.71,250Z" transform="translate(-2.83 -44.62)"/><path class="d" d="M314.26,384.14a151.58,151.58,0,0,0,46.81-35.46,141.56,141.56,0,0,0,21.86-32.38c.24-.49.54-.95.8-1.43,1.37-.74,2.07.41,2.79,1.12,5,4.84,10.44,9.09,15.26,14.07a23,23,0,0,0,2.38,1.9c1.58,1.24,3,1.06,4.45-.24a72.68,72.68,0,0,1,27.23-15,69.85,69.85,0,0,1,48.23,2.43A5.14,5.14,0,0,1,486.8,321a244.17,244.17,0,0,1-11.22,30.3,278.07,278.07,0,0,1-18.75,34.31,225.84,225.84,0,0,1-19.05,25.51,245.17,245.17,0,0,1-49.52,44.21c-1.25.85-2.05,1.09-3.27-.14q-35.1-35.22-70.27-70.35A4.05,4.05,0,0,1,314.26,384.14Z" transform="translate(-2.83 -44.62)"/><path class="e" d="M486.8,321c-5.41-2-10.78-4.1-16.49-5.25a70,70,0,0,0-27,0c-12.11,2.26-22.74,7.58-32.46,14.95l-.43.36c-4.41,3.73-4.85,3.66-9.1-.36-5.34-5.06-10.76-10-16.13-15a2.19,2.19,0,0,0-1.44-.73c.45-1.43-.8-1.93-1.52-2.65q-18.7-18.78-37.46-37.51c-.78-.78-1.5-1.61-2.25-2.42,3.52-4.44,8-7.84,12.34-11.38a153.7,153.7,0,0,1,32.1-20.33,162.68,162.68,0,0,1,42.74-13.39,166,166,0,0,1,34.61-2.05A146.75,146.75,0,0,1,496,229.81c-1.46,1.53-1,2.67.54,3.55.05,1.26.09,2.52.13,3.79.6,2-.12,4.14.42,6.17q0,7.25,0,14.47c-.53,1.84.18,3.78-.4,5.62-.17,5.84-1.14,11.62-1.59,17.42-.76,9.88-2.9,19.46-5.13,29.05A66.36,66.36,0,0,1,486.8,321Z" transform="translate(-2.83 -44.62)"/><path class="c" d="M250,180.17c-.41.49-.78,1-1.24,1.47q-33.5,33.51-67,67c-.33.33-.69.62-1,.93l-.59.43c-1.24.27-1.84-.7-2.52-1.39q-30.41-30.33-60.76-60.71c-.33-.33-.57-.73-.88-1.07q1.88-3.61,3.74-7.23c1,1,2.29.53,3.43.53Q186.56,180.19,250,180.17Z" transform="translate(-2.83 -44.62)"/><path class="b" d="M497.13,243.32c-1-2-.29-4.11-.42-6.17C497.5,239.16,497.13,241.26,497.13,243.32Z" transform="translate(-2.83 -44.62)"/><path class="b" d="M496.72,263.41c.09-1.88-.51-3.8.4-5.62C497.1,259.67,497.49,261.58,496.72,263.41Z" transform="translate(-2.83 -44.62)"/><path class="f" d="M116,186.84c1.39.08,2,1.26,2.8,2.08q29.47,29.42,58.91,58.87c.78.78,1.63,1.48,2.45,2.22-.54.62-1,1.28-1.61,1.86L118.42,312c-2.18,2.19-2.21,2.2-3.51-.7A149.24,149.24,0,0,1,116,186.84Z" transform="translate(-2.83 -44.62)"/><path class="g" d="M409.24,186.3A25.31,25.31,0,1,1,384,160.87,25.3,25.3,0,0,1,409.24,186.3Z" transform="translate(-2.83 -44.62)"/></svg>